<svg width="48" height="49" viewBox="0 0 48 49" fill="none" xmlns="http://www.w3.org/2000/svg">
<path d="M20.4683 7.2551C20.0487 6.73187 19.0982 6.70261 18.5794 6.79956C17.6552 6.96951 16.5926 7.50689 15.9125 7.95481C13.9822 9.22777 12.5622 10.6512 12.2908 12.722C11.8799 15.802 13.4276 23.2809 16.4672 29.1119C19.507 34.9416 24.5827 40.1667 27.2017 41.3198C28.8757 42.0587 31.1971 41.3404 33.1001 39.9225C33.9698 39.2751 34.6501 38.8064 35.3093 37.8376C35.6406 37.3983 35.8391 36.9112 35.7551 36.2769C35.7302 36.1144 35.6603 35.7951 35.6603 35.7951C35.6603 35.7951 35.4762 34.6714 34.3306 33.1478C33.9066 32.5831 33.2974 31.8411 32.7916 31.307C31.8381 30.2976 30.9651 29.5685 30.9651 29.5685L30.7416 29.4148C30.3231 29.0868 29.8207 29.0531 29.3584 29.3484C29.3127 29.3767 29.255 29.4116 29.255 29.4116C29.2299 29.4344 29.0097 29.5892 28.9847 29.6099C28.4256 30.1276 28.5606 30.0513 28.0986 30.5015C27.6017 31.0018 27.3499 31.5129 26.6655 32.3337C25.9711 33.1641 24.769 32.9571 24.2763 32.5396C22.9249 31.3942 21.6345 29.6798 20.1239 26.7807C18.8181 24.2783 18.1849 22.0189 17.7522 20.2783C17.4122 18.9072 18.501 17.9284 19.41 17.6876C20.0791 17.51 20.7441 17.3922 21.2257 17.268C22.3319 16.9748 22.695 16.7797 22.5816 16.8082C22.8322 16.7394 23.1441 16.5259 23.3303 16.2382C23.5374 15.9187 23.6508 15.4164 23.5855 15.0785L23.435 14.3079C23.4491 14.3558 23.2377 13.606 22.8901 12.5171C22.6034 11.6202 22.1414 10.4442 21.7217 9.48837C21.2104 8.32545 20.8966 7.84913 20.8966 7.84913C20.8966 7.84913 20.5642 7.34231 20.6068 7.42419L20.4683 7.2551Z" fill="white"/>
</svg>
