<svg width="48" height="49" viewBox="0 0 48 49" fill="none" xmlns="http://www.w3.org/2000/svg">
<path d="M24.7327 6.77246C17.285 6.77246 11.225 12.8325 11.225 20.2802C11.225 27.4699 23.3291 40.2358 23.8436 40.7748C24.0756 41.0192 24.3973 41.1556 24.7327 41.1556H24.7597C25.1046 41.1556 25.4301 40.9946 25.6572 40.7355L29.8484 35.9342C35.4171 29.1129 38.2402 23.8461 38.2402 20.2802C38.2402 12.8325 32.1802 6.77246 24.7327 6.77246ZM24.7327 26.42C21.3411 26.42 18.5929 23.6718 18.5929 20.2802C18.5929 16.8886 21.3411 14.1404 24.7327 14.1404C28.1244 14.1404 30.8726 16.8886 30.8726 20.2802C30.8726 23.6718 28.1244 26.42 24.7327 26.42Z" fill="white"/>
</svg>
