<svg width="48" height="49" viewBox="0 0 48 49" fill="none" xmlns="http://www.w3.org/2000/svg">
<rect width="48" height="47.9913" transform="translate(0 0.983887)" fill="#0551A0"/>
<path d="M39.9731 15.9014C39.8866 16.618 39.5698 17.3077 39.0266 17.8543L26.3566 30.5219C25.0599 31.8185 22.94 31.8185 21.6432 30.5219L8.97328 17.8543C8.42661 17.3077 8.10997 16.6145 8.02672 15.9014C8.00996 16.0381 8 16.1747 8 16.3147V33.6448C8 35.4778 9.4999 36.9776 11.3334 36.9776H36.6666C38.4998 36.9776 39.9999 35.4778 39.9999 33.6448V16.3147C39.9999 16.1747 39.9899 16.0381 39.9731 15.9014ZM26.3566 28.0958L39.6399 14.8149C39.0898 13.7285 37.9599 12.9819 36.6666 12.9819H11.3334C10.0401 12.9819 8.90992 13.7285 8.36012 14.8149L21.6432 28.0958C22.9398 29.3923 25.0599 29.3923 26.3566 28.0958Z" fill="white"/>
</svg>
