<svg width="100" height="100" viewBox="0 0 100 100" fill="none" xmlns="http://www.w3.org/2000/svg">
<g clip-path="url(#clip0_46_41)">
<path d="M98.9814 40.0658L94.9898 41.3914L84.348 44.1848C101.018 36.5984 93.3348 23.2157 85.2916 14.843C82.2746 11.7416 78.8509 9.06363 75.1142 6.88228L73.9459 6.17832C73.8635 6.17832 73.8635 6.10343 73.7886 6.10343C66.5022 2.08806 58.3158 -0.0120167 49.9962 -7.13953e-05C40.1061 -7.12844e-05 30.4381 2.93279 22.2148 8.4276C13.9916 13.9224 7.58249 21.7324 3.79805 30.8698C0.0136013 40.0072 -0.976203 50.0617 0.95381 59.7617C2.88382 69.4617 7.64696 78.3715 14.6409 85.3643C21.6348 92.3572 30.5453 97.119 40.2455 99.0475C49.9458 100.976 60.0001 99.9848 69.137 96.199C78.2739 92.4131 86.0829 86.0029 91.5764 77.7788C97.07 69.5548 100.001 59.8863 99.9999 49.9962C99.9844 46.6608 99.6432 43.3349 98.9814 40.0658Z" fill="#DC4914"/>
<path d="M96.3977 44.9935C96.0083 45.2257 91.3951 47.3451 83.9585 48.1239C79.7915 48.659 75.8176 50.2012 72.3806 52.6173C72.3806 52.6173 79.0308 50.5803 83.3295 51.9882C79.191 53.3628 75.7176 56.2377 73.5938 60.0463C73.5938 60.0463 80.0867 55.3508 85.8757 54.9613C85.8757 54.9613 77.196 59.3424 77.9749 72.0212C77.9749 72.0212 89.4779 67.9472 91.5149 59.9714C92.2537 63.294 91.9531 66.7634 90.6537 69.9093C90.6537 69.9093 98.7492 58.9979 96.3977 44.9935Z" fill="white"/>
<path d="M15.5696 44.1324C15.466 44.1195 15.3687 44.0754 15.2907 44.0061C15.2126 43.9368 15.1573 43.8454 15.1322 43.744C15.107 43.6427 15.1132 43.5361 15.1499 43.4383C15.1865 43.3405 15.2519 43.2562 15.3375 43.1963C17.0479 41.7194 18.572 40.0395 19.8758 38.1937C3.13047 39.5941 13.7723 15.577 13.7723 15.577C-3.91664 43.3536 17.8388 44.6791 18.0709 44.6791C17.0599 44.4469 16.1987 44.1848 15.5696 44.1324Z" fill="#B23F22"/>
<path d="M49.9962 96.2405C37.0626 96.2509 24.6298 91.2404 15.3176 82.2648C6.00528 73.2892 0.540594 61.0493 0.074869 48.124C0.0124195 48.7485 -0.0125884 49.3762 -2.0561e-05 50.0037C0.160977 63.1586 5.49969 75.72 14.859 84.9655C24.2183 94.211 36.8442 99.3956 50 99.3956C63.1558 99.3956 75.7816 94.211 85.141 84.9655C94.5003 75.72 99.839 63.1586 100 50.0037C100.014 49.376 99.9863 48.7481 99.9176 48.124C99.4426 61.0462 93.9751 73.2806 84.6648 82.2543C75.3545 91.228 62.9271 96.2415 49.9962 96.2405Z" fill="#B23F22"/>
<path d="M80.1318 38.2611C76.6208 33.3835 74.7319 27.5256 74.7323 21.5158C74.7312 17.9302 75.3939 14.3755 76.6869 11.0312H75.938C72.3662 11.0394 68.933 12.4142 66.3428 14.8735C63.7526 17.3328 62.2017 20.6902 62.0085 24.2567C62.005 24.3474 62.0245 24.4375 62.065 24.5187C62.1056 24.5998 62.166 24.6694 62.2407 24.721C63.6666 25.6935 64.978 26.824 66.1499 28.0911C64.8446 27.1604 63.4586 26.3483 62.0085 25.6646C58.2328 23.9134 54.1208 23.0062 49.9588 23.0062C45.7968 23.0062 41.6847 23.9134 37.9091 25.6646C36.436 26.3451 35.0273 27.1572 33.7003 28.0911C34.8807 26.822 36.1994 25.6891 37.632 24.7135C37.7075 24.6623 37.769 24.593 37.8109 24.5119C37.8527 24.4308 37.8736 24.3405 37.8716 24.2492C37.7247 20.6729 36.2009 17.2919 33.6189 14.8131C31.0368 12.3343 27.5964 10.9497 24.0171 10.9489H23.2157C24.502 14.295 25.1644 17.8485 25.1704 21.4334C25.2161 27.4514 23.3315 33.3255 19.7933 38.1937C18.4682 40.0223 16.9463 41.6999 15.255 43.1963C15.1841 43.2646 15.1324 43.3503 15.1051 43.4448C15.0778 43.5393 15.0758 43.6394 15.0993 43.735C15.1228 43.8305 15.171 43.9182 15.2391 43.9893C15.3071 44.0604 15.3927 44.1123 15.4871 44.1399C19.0893 44.6866 30.0457 47.1879 40.7624 58.5337C44.1324 62.0535 43.1139 67.6926 49.9213 67.6926C56.7288 67.6926 55.7103 62.1583 59.0728 58.5262C69.797 47.1804 80.7459 44.6791 84.3481 44.1324C84.4537 44.1212 84.5532 44.0776 84.6332 44.0078C84.7132 43.9379 84.7697 43.8451 84.7951 43.742C84.8205 43.6389 84.8135 43.5305 84.775 43.4315C84.7366 43.3325 84.6686 43.2478 84.5802 43.1888C82.9384 41.6971 81.4483 40.0465 80.1318 38.2611ZM30.4351 26.2113L30.3602 26.2862L30.2778 26.3686C29.0048 27.3262 27.8728 28.4581 26.9153 29.7311C26.8345 29.817 26.7281 29.8744 26.612 29.8949C26.496 29.9153 26.3764 29.8977 26.2711 29.8447C26.1658 29.7916 26.0805 29.706 26.0279 29.6005C25.9753 29.495 25.9582 29.3753 25.9792 29.2593C26.6831 25.6646 27.6192 18.9321 25.3501 13.5325C25.3083 13.432 25.2999 13.3208 25.326 13.2151C25.3521 13.1094 25.4114 13.0149 25.4952 12.9454C25.5789 12.8759 25.6827 12.835 25.7914 12.8288C25.9001 12.8226 26.0079 12.8514 26.099 12.911C27.9787 14.1616 31.0342 17.2096 31.6558 23.6277C31.6064 24.6164 31.1675 25.5453 30.4351 26.2113ZM69.7147 26.3686L69.6473 26.2862L69.5649 26.2113C69.1989 25.9054 68.9046 25.5228 68.7027 25.0906C68.5008 24.6583 68.3963 24.1871 68.3966 23.71C68.9358 17.2246 71.9838 14.229 73.9384 12.9858C74.0307 12.9301 74.1381 12.9047 74.2456 12.913C74.3531 12.9214 74.4553 12.9632 74.5378 13.0326C74.6204 13.1019 74.6792 13.1953 74.706 13.2998C74.7328 13.4042 74.7263 13.5144 74.6873 13.6149C72.4931 19.0145 73.3543 25.7395 74.0582 29.3417C74.0792 29.4577 74.0621 29.5774 74.0095 29.6829C73.9569 29.7884 73.8716 29.874 73.7663 29.9271C73.661 29.9801 73.5414 29.9977 73.4254 29.9773C73.3093 29.9568 73.2029 29.8994 73.1221 29.8135C72.1532 28.5114 71.0061 27.3517 69.7147 26.3686Z" fill="white"/>
<path d="M59.1629 58.5262C55.8003 62.046 56.8188 67.6852 50.0114 67.6852C43.2039 67.6852 44.185 62.1584 40.8449 58.5262C30.1282 47.1805 19.1718 44.6791 15.5771 44.1324C15.5771 44.1324 33.4907 49.532 40.4555 61.1099C42.103 63.8509 42.4101 69.6473 50.0039 69.6473C57.5977 69.6473 57.8298 63.8509 59.4699 61.1099C66.5095 49.532 84.3557 44.1324 84.3557 44.1324C80.8359 44.6791 69.8796 47.1805 59.1629 58.5262Z" fill="#B23F22"/>
<path d="M53.5984 59.3049C51.2651 58.6832 48.8097 58.6832 46.4764 59.3049C46.2412 59.4651 46.0716 59.7047 45.9987 59.9797C45.9258 60.2548 45.9545 60.547 46.0795 60.8027C46.4764 61.8211 47.4126 64.9515 49.9962 64.9515C52.5799 64.9515 53.5161 61.8211 53.9055 60.8027C54.0564 60.5613 54.1087 60.2712 54.0516 59.9923C53.9944 59.7135 53.8321 59.4673 53.5984 59.3049Z" fill="#DC4914"/>
<path d="M35.5199 39.4293C32.7041 38.4183 31.6107 38.3359 31.2213 39.1972C30.5922 40.6051 34.0371 42.6421 34.0371 42.6421C34.0371 42.6421 40.3728 45.8474 42.0203 50.3857C42.0629 50.5896 42.1528 50.7806 42.2829 50.9432C42.413 51.1059 42.5796 51.2356 42.7692 51.3218C42.8876 51.3883 43.0235 51.417 43.1587 51.4042C43.3773 51.3983 43.5921 51.3446 43.7877 51.2469C44.3344 50.9324 44.2595 50.2284 44.2595 49.9962C44.0499 47.802 41.1891 41.4663 35.5199 39.4293Z" fill="#DC4914"/>
<path d="M68.7785 39.1971C68.389 38.3359 67.2807 38.4482 64.4723 39.4293C58.8406 41.4663 55.8675 47.8019 55.7103 49.9962C55.7103 50.2284 55.6354 50.9323 56.1821 51.2469C56.364 51.3714 56.5843 51.4272 56.8036 51.4041C56.9412 51.4166 57.0793 51.388 57.2006 51.3218C57.3831 51.2257 57.5439 51.093 57.6727 50.9319C57.8016 50.7708 57.8958 50.5848 57.9494 50.3856C59.627 45.8473 65.9027 42.6421 65.9626 42.5597C66.0225 42.4773 69.4824 40.5302 68.7785 39.1971Z" fill="#DC4914"/>
</g>
<defs>
<clipPath id="clip0_46_41">
<rect width="100" height="100" fill="white"/>
</clipPath>
</defs>
</svg>
