<svg width="192" height="36" viewBox="0 0 192 36" fill="none" xmlns="http://www.w3.org/2000/svg">
<path d="M185.796 16.4647L184.51 16.0941L171.822 12.4941V9.68824L176.238 5.87647H185.796H191.329L190.435 2.96471L189.541 0H185.796H171.822H171.654L168.245 2.96471L164.835 5.87647V9.68824V12.4941V16.0941V16.8353L169.642 18.2118L171.822 18.7941L182.61 21.8647L185.796 22.7647V26.7353L184.622 27.7412L181.212 30.7059H171.822H165.673L164.835 33.0882L163.773 36H164.835H171.822H185.796L192 30.7059V27.7412V26.7353V22.7647V21.8647V18.2118L185.796 16.4647Z" fill="#DA4713"/>
<path d="M150.749 0H135.657H128.558V2.96471V5.87647V9.68824V12.4941V16.0941V18.2118V21.8647V22.7647V26.7353V27.7412V30.7059V36H135.657V30.7059V27.7412V26.7353V22.7647V21.8647H140.296L140.855 22.7647L143.371 26.7353L143.985 27.7412L145.886 30.7059L149.24 36H150.749H157.009L153.655 30.7059L151.755 27.7412L151.14 26.7353L150.805 26.2059L148.625 22.7647L148.066 21.8647H150.805L154.829 18.2118L157.065 16.1471V16.0941V12.4941V9.68824V5.87647V5.18824L154.382 2.91176L150.749 0ZM150.749 12.4941L146.836 16.0941H135.657V12.4941V9.68824V5.87647H147.507L150.805 8.84118V9.63529V12.4941H150.749Z" fill="#DA4713"/>
<path d="M115.199 0H103.126L102.176 0.794118L99.5488 2.96471H97.7042L95.0771 0.794118L94.1269 0H81.9976L78.4203 2.96471L74.8989 5.87647V36H81.9976V8.73529L85.4072 5.87647H91.6116L95.0771 8.73529V36H102.176V8.73529L105.585 5.87647H111.734L115.199 8.73529V36H122.242V5.87647L118.721 2.96471L115.199 0Z" fill="#DA4713"/>
<path d="M65.3985 12.4941L64.0011 9.68824L62.1006 5.87647L61.2063 4.07647L60.6474 2.91176L59.1382 0H46.0028L44.5495 2.96471L43.9906 4.12941L43.0962 5.92941L41.1958 9.74118L39.7425 12.4941L37.9539 16.0941L36.8918 18.2118V21.8647V22.7647V26.7353V27.7412V30.7059V36H43.9906V30.7059V27.7412H61.2063V30.7059V36H68.2491V30.7059V27.7412V26.7353V22.7647V21.8647V18.2118L67.1871 16.0941L65.3985 12.4941ZM61.1504 21.8647H43.9347V18.2118L44.9967 16.0941L46.7853 12.4941L48.1827 9.68824L50.0831 5.87647H54.946L56.8465 9.68824L58.2439 12.4941L60.0325 16.0941L61.0945 18.2118V21.8647H61.1504Z" fill="#DA4713"/>
<path d="M23.1407 2.96471V5.87647V9.68824V12.4941V16.0941V18.2118L21.2961 21.8647L20.7931 22.7647L18.7808 26.7353L18.2778 27.7412L16.7686 30.7059H13.4708L11.9616 27.7412L11.4585 26.7353L9.44631 22.7647L8.94325 21.8647L7.09871 18.2118V16.0941V12.4941V9.68824V5.87647V2.96471V0H0V2.96471V5.87647V9.68824V12.4941V16.0941V18.2118L1.90044 21.8647L2.3476 22.7647L4.35984 26.7353L4.86289 27.7412L6.42796 30.7059L7.09871 31.9765L9.11094 36H21.1843L23.1407 32.1353L23.8673 30.7059L25.4324 27.7412L25.9354 26.7353L27.9477 22.7647L28.4507 21.8647L30.2394 18.3176V18.2118V16.0941V12.4941V9.68824V5.87647V2.96471V0H23.1407V2.96471Z" fill="#DA4713"/>
</svg>
