<svg width="48" height="49" viewBox="0 0 48 49" fill="none" xmlns="http://www.w3.org/2000/svg">
<rect width="48" height="48" transform="translate(0 0.96875)" fill="#0551A0"/>
<g clip-path="url(#clip0_33_552)">
<path d="M38.85 12.3689C38.85 11.9009 38.688 11.7209 38.256 11.7929C37.806 11.8469 37.356 11.9549 36.906 11.9189C34.836 11.7389 32.73 11.7389 30.696 11.1989C28.338 10.5689 26.07 9.77695 24.414 7.76095C24.018 7.27495 23.856 7.36495 23.442 7.67095C21.156 9.39895 18.78 11.0009 15.936 11.4689C13.992 11.7929 12.012 12.0089 10.05 11.7929C9.34804 11.7209 9.06004 11.9189 9.16804 12.6929C9.25804 13.3049 9.33004 13.9529 9.33004 14.5469C9.33004 18.8309 9.67204 23.1149 9.49204 27.3989C9.34804 30.5309 10.536 32.9789 12.588 35.0849C15.756 38.3249 19.59 40.4669 23.568 42.3749C23.964 42.5729 24.27 42.4469 24.612 42.2669C26.07 41.4929 27.564 40.7729 28.986 39.9269C31.488 38.4509 33.882 36.7949 35.844 34.5809C37.122 33.1409 38.364 31.5749 38.436 29.5049C38.598 24.5189 38.652 19.5149 38.76 14.4929H38.832C38.832 13.8089 38.814 13.0889 38.85 12.3689ZM18.798 22.7549C18.888 25.3469 18.798 27.9389 18.834 30.5309C18.834 31.0709 18.672 31.2149 18.15 31.2149C16.368 31.2149 16.368 31.2509 16.35 29.4689C16.332 27.2189 16.26 24.9869 16.26 22.7369C16.26 22.1249 16.044 22.0349 15.558 22.2869C15.45 22.3409 15.306 22.3949 15.18 22.4309C14.892 22.5029 14.46 22.8449 14.334 22.4489C14.208 22.0529 14.046 21.4949 14.622 21.1709C15.936 20.4509 16.854 19.3349 17.286 17.9489C17.592 16.9949 18.024 16.5809 18.834 16.8149C20.382 16.8149 20.49 16.8689 19.752 18.1469C18.942 19.6049 18.744 21.1169 18.798 22.7549ZM21.642 23.7269H32.064C32.46 23.7269 32.784 23.6729 32.802 24.2849C32.82 24.9509 32.46 24.8789 32.046 24.8789H21.678C21.264 24.8789 20.904 24.9689 20.904 24.2849C20.922 23.6729 21.246 23.7269 21.642 23.7269ZM20.922 21.8729C20.922 21.2969 21.246 21.3149 21.642 21.3149H32.064C32.46 21.3149 32.784 21.2249 32.802 21.8549C32.82 22.5029 32.46 22.4489 32.046 22.4489H26.88C25.134 22.4489 23.37 22.4309 21.624 22.4489C21.174 22.4489 20.922 22.4309 20.922 21.8729ZM32.928 26.8589C32.874 27.6329 32.91 28.4249 32.91 29.2169C32.91 30.4409 32.208 31.1969 30.984 31.2149C27.852 31.2509 24.72 31.2149 21.606 31.2329C21.174 31.2329 21.048 31.0709 21.048 30.6569C21.066 29.3609 21.066 28.0649 21.03 26.7689C21.012 26.3009 21.21 26.1929 21.642 26.1929C23.46 26.2109 25.26 26.1929 27.078 26.1929C28.806 26.1929 30.552 26.2109 32.262 26.1749C32.82 26.1569 32.964 26.3369 32.928 26.8589ZM32.73 19.2989C30.786 19.3349 28.86 19.3169 26.916 19.3169H20.85C20.436 19.3169 20.148 19.3349 20.13 18.7409C20.112 18.1469 20.382 18.1109 20.868 18.1109C22.182 18.1289 23.514 18.0929 24.828 18.1289C25.314 18.1289 25.566 17.9849 25.476 17.4809C25.386 16.9229 25.674 16.7609 26.178 16.8149C26.538 16.8509 26.88 16.8329 27.24 16.8149C27.906 16.7789 28.59 16.7069 28.428 17.7509C28.356 18.1649 28.734 18.1109 29.004 18.1109C30.264 18.1109 31.524 18.0929 32.802 18.1289C33.198 18.1469 33.828 17.8049 33.846 18.7049C33.81 19.6409 33.144 19.2989 32.73 19.2989Z" fill="white"/>
<path d="M29.598 27.4706C28.698 27.5066 27.762 27.4886 26.862 27.4886H25.242C23.46 27.4886 23.478 27.4886 23.478 29.2706C23.478 29.8646 23.712 29.9906 24.234 29.9726C25.62 29.9366 26.97 29.9546 28.356 29.9546C30.228 29.9546 30.264 29.9006 30.21 28.0826C30.174 27.6146 30.066 27.4526 29.598 27.4706Z" fill="white"/>
</g>
<defs>
<clipPath id="clip0_33_552">
<rect width="36" height="36" fill="white" transform="translate(6 6.96875)"/>
</clipPath>
</defs>
</svg>
